# xmcd
# Copyright (C) 1995-1998 Ti Kan
#
# Track frame offsets:
#       150
#       23961
#       37745
#       55391
#       63206
#       83373
#       100323
#       121731
#       138143
#       160971
#
# Disc length: 2341 seconds
#
# Revision: 0
# Processed by: cddbd v1.5.2PL0 Copyright (c) Steve Scherf et al.
# Submitted via: CD-Transfer v1.0
#
DISCID=7009230a
DTITLE=Morning Benders, The - Chris Chu
DYEAR=10
DGENRE=
TTITLE0=Excuses
TTITLE1=Promises
TTITLE2=Wet Cement
TTITLE3=Cold War (Nice Clean Fight)
TTITLE4=Pleasure Sighs
TTITLE5=Hang Me Downs
TTITLE6=Mason Jar
TTITLE7=All Day, Day Light
TTITLE8=Stitches
TTITLE9=Sleeping In
EXTD=
EXTT0=
EXTT1=
EXTT2=
EXTT3=
EXTT4=
EXTT5=
EXTT6=
EXTT7=
EXTT8=
EXTT9=
PLAYORDER=
